<svg xmlns="http://www.w3.org/2000/svg" xml:space="preserve" viewBox="0 0 1567.3 480"><path fill="#59a7dd" d="M144 473.4c14.8-2 26-14.8 26-29.8 0-16.6-13.5-30.1-30-30.1-1.3 0-2.6.1-4 .3-.2 0-.3 0-.4.1-7.3 1-14.2 1.5-20.6 1.5-18.6 0-32.5-4.2-41.3-12.5-14.3-13.4-13.7-36.4-13.6-39 0-.5.1-1 .2-1.6V30.1C60.2 13.5 46.7 0 30.2 0S.3 13.4.2 29.9v329.6c-.7 12.4-.6 55.2 31.4 86.2 20.4 19.7 48.4 29.7 83.3 29.7 8.7 0 18-.7 27.8-1.9h.5c.2 0 .4-.1.6-.1 0 .1.1 0 .2 0M258.4.6c-16.5 0-30 13.5-30 30.1s13.5 30.1 30 30.1 30-13.5 30-30.1S274.9.6 258.4.6m0 137.1c-16.5 0-30 13.5-30 30.1V441c0 16.6 13.5 30.1 30 30.1s30-13.5 30-30.1V167.8c0-16.6-13.5-30.1-30-30.1m411 45.1c2-4.2 3.1-8.6 3.1-13.3 0-16.6-13.5-30.1-30-30.1-11.6 0-22.2 6.8-27.2 17.4 0 0 0 .1-.1.1l-89.3 186.2c-2.5 5.2-7.8 8.6-13.6 8.6s-11.1-3.3-13.6-8.6l-89.4-186.3s0-.1-.1-.1c-4.9-10.5-15.6-17.3-27.2-17.3-16.5 0-30 13.5-30 30.1 0 4.7 1 9.2 3.1 13.3 0 .1.1.1.1.2L485 453.3c0 .1.1.1.1.2l.2.3v.1c2 4.1 4.9 7.7 8.4 10.5.2.1.3.2.4.3.2.2.4.3.6.4s.4.3.6.4.3.2.5.4c.3.2.6.4 1 .6l.1.1c4.8 2.9 9.8 4.4 15 4.4 1.8 0 3.6-.2 5.3-.5.1 0 .2 0 .3-.1 9.1-1.6 17.2-7.5 21.5-15.8 0-.1.1-.2.1-.2.4-.7.8-1.5 1.1-2.3.1-.2.2-.3.2-.5L669.3 183c0-.1.1-.1.1-.2m370.5 0c2-4.2 3.1-8.6 3.1-13.3 0-16.6-13.5-30.1-30-30.1-11.6 0-22.2 6.8-27.2 17.4 0 0 0 .1-.1.1l-89.3 186.2c-2.5 5.2-7.8 8.6-13.6 8.6s-11.1-3.3-13.6-8.6l-89.4-186.3s0-.1-.1-.1c-4.9-10.5-15.6-17.3-27.2-17.3-16.5 0-30 13.5-30 30.1 0 4.7 1.1 9.2 3.1 13.3 0 .1.1.1.1.2l129.7 270.3c0 .1.1.1.1.2l.2.3v.1c2 4.1 4.9 7.7 8.4 10.5.2.1.3.2.4.3.2.2.4.3.6.4s.4.3.6.4.3.2.5.4c.3.2.7.4 1 .6l.1.1c4.8 2.9 9.8 4.4 15 4.4 1.8 0 3.6-.2 5.3-.5.1 0 .2 0 .3-.1 9.2-1.6 17.2-7.5 21.5-15.8 0-.1.1-.2.1-.2.4-.7.8-1.5 1.1-2.3.1-.2.2-.3.2-.5L1039.7 183c.2-.1.2-.1.2-.2M1129.2.6c-16.5 0-30 13.5-30 30.1s13.5 30.1 30 30.1 30-13.5 30-30.1-13.4-30.1-30-30.1m0 137.1c-16.5 0-30 13.5-30 30.1V441c0 16.6 13.5 30.1 30 30.1s30-13.5 30-30.1V167.8c0-16.6-13.4-30.1-30-30.1m390.9 45c-30.8-32.4-73.6-50.2-120.7-50.2h-.2c-43.8 0-85.2 18-116.6 50.8-31.7 33-49.1 76.7-49.1 123 0 23.4 3.8 45.7 11.3 66.3 5.8 15.8 13.7 30.4 23.6 43.4 7.6 10 16.3 19 26 26.8 14.9 12.1 32.1 21.4 51 27.6 19.3 6.4 40.4 9.6 62.7 9.6 21.1 0 42.4-4.1 63.2-12.3 20.5-8 38.9-19.2 54.7-33.4.1-.1.2-.2.3-.2 6.3-5.7 10-13.9 10-22.4 0-16.6-13.5-30.1-30-30.1-7.4 0-14.5 2.7-20 7.7l-.3.3c-10.1 9-23 16.9-36.4 22.1-13.6 5.3-27.9 8.1-41.3 8.1h-.1c-18.8 0-35.8-3.1-50.7-9.1-10.3-4.2-19.3-9.6-27.4-16.5-11.6-10-20.7-22.5-27-37.4-2.8-6.5-4.9-13.4-6.5-20.5h240.6c16.5 0 30-13.5 30-30.1.1-47.6-16.7-91.5-47.1-123.5m-24.3 86.6c-2.8 4.3-7.5 6.9-12.6 6.9h-185.8c12.3-48.1 53.4-83.5 101.9-83.5 44.7 0 80.3 22.7 97.7 62.3 2 4.6 1.5 10-1.2 14.3"/></svg>